<svg width="28" height="22" viewBox="0 0 28 22" fill="none" xmlns="http://www.w3.org/2000/svg">
<symbol id="discord" viewBox="0 0 28 22">
    <path d="M23.7037 2.2408C21.9187 1.4358 20.0054 0.840799 18.0046 0.502465C17.9867 0.499045 17.9683 0.501249 17.9518 0.508774C17.9353 0.516299 17.9215 0.528772 17.9124 0.544465C17.6674 0.974965 17.3944 1.53613 17.2031 1.97947C15.081 1.66241 12.9236 1.66241 10.8016 1.97947C10.5885 1.48814 10.3481 1.00906 10.0817 0.544465C10.0727 0.528578 10.059 0.515823 10.0426 0.507902C10.0261 0.499981 10.0076 0.49727 9.98956 0.500132C7.98989 0.838465 6.07656 1.43347 4.29039 2.23963C4.27503 2.24608 4.262 2.25707 4.25306 2.27113C0.622394 7.60863 -0.372773 12.8143 0.116061 17.9546C0.117421 17.9672 0.121329 17.9794 0.127546 17.9904C0.133764 18.0015 0.142161 18.0111 0.152227 18.0188C2.27135 19.5616 4.63495 20.7369 7.14406 21.4955C7.16155 21.5009 7.18026 21.5008 7.19774 21.4954C7.21523 21.49 7.23067 21.4795 7.24206 21.4651C7.78199 20.743 8.26044 19.977 8.67239 19.175C8.67811 19.164 8.68141 19.1519 8.68206 19.1396C8.68271 19.1272 8.6807 19.1149 8.67616 19.1034C8.67163 19.0919 8.66467 19.0815 8.65577 19.0729C8.64687 19.0643 8.63622 19.0577 8.62456 19.0536C7.8709 18.7698 7.14066 18.4273 6.44056 18.0293C6.42798 18.0221 6.41738 18.0119 6.40971 17.9996C6.40204 17.9874 6.39754 17.9734 6.39662 17.9589C6.39569 17.9444 6.39837 17.93 6.40441 17.9168C6.41045 17.9037 6.41967 17.8922 6.43123 17.8835C6.57823 17.775 6.72523 17.6618 6.86523 17.5486C6.87783 17.5385 6.89301 17.532 6.90908 17.5299C6.92514 17.5279 6.94147 17.5303 6.95623 17.537C11.5377 19.595 16.4996 19.595 21.0274 17.537C21.0422 17.5299 21.0587 17.5271 21.075 17.529C21.0913 17.5309 21.1067 17.5373 21.1196 17.5475C21.2596 17.6618 21.4054 17.775 21.5536 17.8835C21.5652 17.892 21.5746 17.9033 21.5808 17.9164C21.5871 17.9294 21.59 17.9438 21.5893 17.9583C21.5886 17.9727 21.5843 17.9868 21.5769 17.9992C21.5694 18.0116 21.559 18.0219 21.5466 18.0293C20.8489 18.4306 20.1232 18.7701 19.3614 19.0525C19.3497 19.0567 19.339 19.0634 19.3301 19.0721C19.3212 19.0808 19.3143 19.0913 19.3097 19.1029C19.3052 19.1145 19.3032 19.1269 19.3039 19.1393C19.3045 19.1518 19.3078 19.1639 19.3136 19.175C19.7336 19.9765 20.2142 20.7395 20.7427 21.464C20.7537 21.4788 20.769 21.4899 20.7866 21.4958C20.8041 21.5016 20.823 21.5019 20.8407 21.4966C23.3541 20.7402 25.7216 19.5644 27.8431 18.0188C27.8534 18.0116 27.8621 18.0022 27.8685 17.9913C27.875 17.9805 27.879 17.9684 27.8804 17.9558C28.4637 12.0128 26.9027 6.84913 23.7399 2.27347C23.7321 2.2586 23.7193 2.247 23.7037 2.2408ZM9.35723 14.8245C7.97823 14.8245 6.84073 13.5773 6.84073 12.0478C6.84073 10.5171 7.95606 9.27113 9.35723 9.27113C10.7689 9.27113 11.8959 10.5276 11.8737 12.0478C11.8737 13.5785 10.7584 14.8245 9.35723 14.8245ZM18.6614 14.8245C17.2812 14.8245 16.1449 13.5773 16.1449 12.0478C16.1449 10.5171 17.2591 9.27113 18.6614 9.27113C20.0731 9.27113 21.2001 10.5276 21.1779 12.0478C21.1779 13.5785 20.0742 14.8245 18.6614 14.8245Z" fill="currentColor"/>
</symbol>
</svg>
